<mxfile host="app.diagrams.net" modified="2024-01-01T16:23:34.893Z" agent="Mozilla/5.0 (X11; Linux x86_64; rv:121.0) Gecko/20100101 Firefox/121.0" etag="56n4zvjs6GZojVQuqJM4" version="22.1.16" type="github">
  <diagram id="prtHgNgQTEPvFCAcTncT" name="Page-1">
    <mxGraphModel dx="684" dy="325" grid="1" gridSize="10" guides="1" tooltips="1" connect="1" arrows="1" fold="1" page="1" pageScale="1" pageWidth="827" pageHeight="1169" math="0" shadow="0">
      <root>
        <mxCell id="0" />
        <mxCell id="1" parent="0" />
        <mxCell id="WvfnBEPjAD18mNaexyHV-153" value="ListLookupCache" style="swimlane;whiteSpace=wrap;html=1;fillColor=#ffe6cc;strokeColor=#d79b00;sketch=1;curveFitting=1;jiggle=2;" parent="1" vertex="1">
          <mxGeometry x="192" y="20" width="468" height="290" as="geometry" />
        </mxCell>
        <mxCell id="WvfnBEPjAD18mNaexyHV-169" style="edgeStyle=orthogonalEdgeStyle;rounded=0;orthogonalLoop=1;jettySize=auto;html=1;entryX=0;entryY=0.5;entryDx=0;entryDy=0;exitX=1;exitY=0.25;exitDx=0;exitDy=0;sketch=1;curveFitting=1;jiggle=2;" parent="WvfnBEPjAD18mNaexyHV-153" source="WvfnBEPjAD18mNaexyHV-175" target="WvfnBEPjAD18mNaexyHV-184" edge="1">
          <mxGeometry relative="1" as="geometry">
            <mxPoint x="-130" y="280" as="sourcePoint" />
            <Array as="points">
              <mxPoint x="100" y="175" />
            </Array>
            <mxPoint x="200" y="195" as="targetPoint" />
          </mxGeometry>
        </mxCell>
        <mxCell id="WvfnBEPjAD18mNaexyHV-170" value="GET" style="edgeLabel;html=1;align=center;verticalAlign=middle;resizable=0;points=[];fontSize=24;labelBackgroundColor=default;" parent="WvfnBEPjAD18mNaexyHV-169" vertex="1" connectable="0">
          <mxGeometry x="0.4667" relative="1" as="geometry">
            <mxPoint x="-31" y="-1" as="offset" />
          </mxGeometry>
        </mxCell>
        <mxCell id="WvfnBEPjAD18mNaexyHV-171" value="NO" style="edgeStyle=orthogonalEdgeStyle;rounded=0;orthogonalLoop=1;jettySize=auto;html=1;exitX=0.5;exitY=1;exitDx=0;exitDy=0;entryX=0.5;entryY=0;entryDx=0;entryDy=0;strokeWidth=3;fontSize=12;sketch=1;curveFitting=1;jiggle=2;" parent="WvfnBEPjAD18mNaexyHV-153" source="WvfnBEPjAD18mNaexyHV-172" target="WvfnBEPjAD18mNaexyHV-175" edge="1">
          <mxGeometry x="-0.4286" relative="1" as="geometry">
            <mxPoint x="60" y="90" as="sourcePoint" />
            <mxPoint as="offset" />
          </mxGeometry>
        </mxCell>
        <mxCell id="WvfnBEPjAD18mNaexyHV-188" style="edgeStyle=orthogonalEdgeStyle;rounded=0;orthogonalLoop=1;jettySize=auto;html=1;exitX=1;exitY=0.5;exitDx=0;exitDy=0;sketch=1;curveFitting=1;jiggle=2;endArrow=classic;endFill=1;" parent="WvfnBEPjAD18mNaexyHV-153" source="WvfnBEPjAD18mNaexyHV-172" edge="1">
          <mxGeometry relative="1" as="geometry">
            <Array as="points">
              <mxPoint x="148" y="70" />
            </Array>
            <mxPoint x="148" y="160" as="targetPoint" />
          </mxGeometry>
        </mxCell>
        <mxCell id="WvfnBEPjAD18mNaexyHV-189" value="YES" style="edgeLabel;html=1;align=center;verticalAlign=middle;resizable=0;points=[];fontSize=12;" parent="WvfnBEPjAD18mNaexyHV-188" vertex="1" connectable="0">
          <mxGeometry x="-0.7523" relative="1" as="geometry">
            <mxPoint x="11" as="offset" />
          </mxGeometry>
        </mxCell>
        <mxCell id="WvfnBEPjAD18mNaexyHV-172" value="EXISTS" style="rhombus;whiteSpace=wrap;html=1;fontSize=14;sketch=1;curveFitting=1;jiggle=2;fillColor=#e1d5e7;strokeColor=#9673a6;" parent="WvfnBEPjAD18mNaexyHV-153" vertex="1">
          <mxGeometry x="20" y="30" width="80" height="80" as="geometry" />
        </mxCell>
        <mxCell id="WvfnBEPjAD18mNaexyHV-175" value="MAP" style="shape=document;whiteSpace=wrap;html=1;boundedLbl=1;sketch=1;curveFitting=1;jiggle=2;fillColor=#d5e8d4;strokeColor=#82b366;fontSize=14;" parent="WvfnBEPjAD18mNaexyHV-153" vertex="1">
          <mxGeometry x="20" y="160" width="80" height="70" as="geometry" />
        </mxCell>
        <mxCell id="WvfnBEPjAD18mNaexyHV-178" value="Cache" style="swimlane;whiteSpace=wrap;html=1;fillColor=#ffe6cc;strokeColor=#d79b00;sketch=1;curveFitting=1;jiggle=2;" parent="WvfnBEPjAD18mNaexyHV-153" vertex="1">
          <mxGeometry x="194" y="60" width="266" height="220" as="geometry" />
        </mxCell>
        <mxCell id="_DWQFKNEUui1s_jFMnWs-2" value="" style="shape=cylinder3;whiteSpace=wrap;html=1;boundedLbl=1;backgroundOutline=1;size=15;sketch=1;curveFitting=1;jiggle=2;fillColor=none;strokeColor=#82b366;shadow=0;fillStyle=auto;gradientColor=none;" vertex="1" parent="WvfnBEPjAD18mNaexyHV-178">
          <mxGeometry x="141" y="30" width="110" height="180" as="geometry" />
        </mxCell>
        <mxCell id="WvfnBEPjAD18mNaexyHV-179" value="CacheState" style="swimlane;fontStyle=1;childLayout=stackLayout;horizontal=1;startSize=30;horizontalStack=0;resizeParent=1;resizeParentMax=0;resizeLast=0;collapsible=1;marginBottom=0;whiteSpace=wrap;html=1;fillColor=#ffe6cc;strokeColor=#d79b00;sketch=1;curveFitting=1;jiggle=2;" parent="WvfnBEPjAD18mNaexyHV-178" vertex="1">
          <mxGeometry x="151" y="70" width="90" height="120" as="geometry" />
        </mxCell>
        <mxCell id="WvfnBEPjAD18mNaexyHV-180" value="Map" style="text;strokeColor=none;fillColor=none;align=left;verticalAlign=middle;spacingLeft=4;spacingRight=4;overflow=hidden;points=[[0,0.5],[1,0.5]];portConstraint=eastwest;rotatable=0;whiteSpace=wrap;html=1;" parent="WvfnBEPjAD18mNaexyHV-179" vertex="1">
          <mxGeometry y="30" width="90" height="30" as="geometry" />
        </mxCell>
        <mxCell id="WvfnBEPjAD18mNaexyHV-181" value="Keys" style="text;strokeColor=none;fillColor=none;align=left;verticalAlign=middle;spacingLeft=4;spacingRight=4;overflow=hidden;points=[[0,0.5],[1,0.5]];portConstraint=eastwest;rotatable=0;whiteSpace=wrap;html=1;" parent="WvfnBEPjAD18mNaexyHV-179" vertex="1">
          <mxGeometry y="60" width="90" height="30" as="geometry" />
        </mxCell>
        <mxCell id="WvfnBEPjAD18mNaexyHV-182" value="Accesses" style="text;strokeColor=none;fillColor=none;align=left;verticalAlign=middle;spacingLeft=4;spacingRight=4;overflow=hidden;points=[[0,0.5],[1,0.5]];portConstraint=eastwest;rotatable=0;whiteSpace=wrap;html=1;" parent="WvfnBEPjAD18mNaexyHV-179" vertex="1">
          <mxGeometry y="90" width="90" height="30" as="geometry" />
        </mxCell>
        <mxCell id="WvfnBEPjAD18mNaexyHV-183" value="YES" style="edgeStyle=orthogonalEdgeStyle;rounded=0;orthogonalLoop=1;jettySize=auto;html=1;entryX=0;entryY=0.5;entryDx=0;entryDy=0;fontSize=12;sketch=1;curveFitting=1;jiggle=2;" parent="WvfnBEPjAD18mNaexyHV-178" source="WvfnBEPjAD18mNaexyHV-184" target="WvfnBEPjAD18mNaexyHV-180" edge="1">
          <mxGeometry x="-0.28" relative="1" as="geometry">
            <mxPoint as="offset" />
          </mxGeometry>
        </mxCell>
        <mxCell id="WvfnBEPjAD18mNaexyHV-184" value="EXISTS" style="rhombus;whiteSpace=wrap;html=1;fontSize=14;sketch=1;curveFitting=1;jiggle=2;fillColor=#e1d5e7;strokeColor=#9673a6;" parent="WvfnBEPjAD18mNaexyHV-178" vertex="1">
          <mxGeometry x="16" y="75" width="80" height="80" as="geometry" />
        </mxCell>
        <mxCell id="8dNhH_ZkhWHeMuGV6AHv-1" style="edgeStyle=orthogonalEdgeStyle;rounded=0;orthogonalLoop=1;jettySize=auto;html=1;strokeWidth=3;sketch=1;curveFitting=1;jiggle=2;" parent="WvfnBEPjAD18mNaexyHV-178" edge="1">
          <mxGeometry relative="1" as="geometry">
            <mxPoint x="246" y="94.5" as="sourcePoint" />
            <Array as="points">
              <mxPoint x="306" y="94.5" />
            </Array>
            <mxPoint x="400" y="95" as="targetPoint" />
          </mxGeometry>
        </mxCell>
        <mxCell id="8dNhH_ZkhWHeMuGV6AHv-2" value="VALUES" style="edgeLabel;html=1;align=center;verticalAlign=middle;resizable=0;points=[];fontSize=24;labelBackgroundColor=default;" parent="8dNhH_ZkhWHeMuGV6AHv-1" vertex="1" connectable="0">
          <mxGeometry x="0.4667" relative="1" as="geometry">
            <mxPoint x="-29" y="-1" as="offset" />
          </mxGeometry>
        </mxCell>
        <mxCell id="WvfnBEPjAD18mNaexyHV-185" value="" style="edgeStyle=orthogonalEdgeStyle;rounded=0;orthogonalLoop=1;jettySize=auto;html=1;exitX=0.513;exitY=0.886;exitDx=0;exitDy=0;exitPerimeter=0;strokeWidth=3;sketch=1;curveFitting=1;jiggle=2;entryX=0.528;entryY=0.983;entryDx=0;entryDy=0;entryPerimeter=0;" parent="WvfnBEPjAD18mNaexyHV-153" source="WvfnBEPjAD18mNaexyHV-175" target="WvfnBEPjAD18mNaexyHV-182" edge="1">
          <mxGeometry relative="1" as="geometry">
            <mxPoint x="314" y="185" as="sourcePoint" />
            <mxPoint x="368" y="370" as="targetPoint" />
            <Array as="points">
              <mxPoint x="61" y="370" />
              <mxPoint x="393" y="370" />
            </Array>
          </mxGeometry>
        </mxCell>
        <mxCell id="WvfnBEPjAD18mNaexyHV-186" value="&amp;nbsp;PROMISES&amp;nbsp; " style="edgeLabel;html=1;align=center;verticalAlign=middle;resizable=0;points=[];fontStyle=1;fontSize=12;labelBackgroundColor=default;" parent="WvfnBEPjAD18mNaexyHV-185" vertex="1" connectable="0">
          <mxGeometry x="-0.2934" relative="1" as="geometry">
            <mxPoint x="26" as="offset" />
          </mxGeometry>
        </mxCell>
        <mxCell id="WvfnBEPjAD18mNaexyHV-190" style="edgeStyle=orthogonalEdgeStyle;rounded=0;orthogonalLoop=1;jettySize=auto;html=1;exitX=0;exitY=0.5;exitDx=0;exitDy=0;entryX=0.788;entryY=0.757;entryDx=0;entryDy=0;entryPerimeter=0;sketch=1;curveFitting=1;jiggle=2;" parent="1" source="WvfnBEPjAD18mNaexyHV-187" target="WvfnBEPjAD18mNaexyHV-175" edge="1">
          <mxGeometry relative="1" as="geometry" />
        </mxCell>
        <mxCell id="WvfnBEPjAD18mNaexyHV-187" value="Lookup" style="swimlane;whiteSpace=wrap;html=1;fillColor=#ffe6cc;strokeColor=#d79b00;sketch=1;curveFitting=1;jiggle=2;" parent="1" vertex="1">
          <mxGeometry x="402" y="330" width="80" height="40" as="geometry" />
        </mxCell>
        <mxCell id="WvfnBEPjAD18mNaexyHV-176" value="" style="edgeStyle=orthogonalEdgeStyle;rounded=0;orthogonalLoop=1;jettySize=auto;html=1;entryX=0.5;entryY=0;entryDx=0;entryDy=0;exitX=0.5;exitY=1;exitDx=0;exitDy=0;sketch=1;curveFitting=1;jiggle=2;" parent="1" source="WvfnBEPjAD18mNaexyHV-184" target="WvfnBEPjAD18mNaexyHV-187" edge="1">
          <mxGeometry relative="1" as="geometry">
            <mxPoint x="446" y="375" as="targetPoint" />
            <Array as="points" />
            <mxPoint x="446" y="270" as="sourcePoint" />
          </mxGeometry>
        </mxCell>
        <mxCell id="WvfnBEPjAD18mNaexyHV-177" value="NO" style="edgeLabel;html=1;align=center;verticalAlign=middle;resizable=0;points=[];fontSize=12;" parent="WvfnBEPjAD18mNaexyHV-176" vertex="1" connectable="0">
          <mxGeometry x="-0.7191" y="-2" relative="1" as="geometry">
            <mxPoint x="2" y="10" as="offset" />
          </mxGeometry>
        </mxCell>
        <mxCell id="WvfnBEPjAD18mNaexyHV-194" style="edgeStyle=orthogonalEdgeStyle;rounded=0;orthogonalLoop=1;jettySize=auto;html=1;exitX=0.508;exitY=0.11;exitDx=0;exitDy=0;exitPerimeter=0;entryX=0.263;entryY=0.971;entryDx=0;entryDy=0;entryPerimeter=0;strokeWidth=3;" parent="1" source="WvfnBEPjAD18mNaexyHV-193" target="WvfnBEPjAD18mNaexyHV-175" edge="1">
          <mxGeometry relative="1" as="geometry" />
        </mxCell>
        <mxCell id="WvfnBEPjAD18mNaexyHV-193" value="EXTERNAL" style="ellipse;shape=cloud;whiteSpace=wrap;html=1;fontSize=14;sketch=1;curveFitting=1;jiggle=2;" parent="1" vertex="1">
          <mxGeometry x="172" y="390" width="120" height="100" as="geometry" />
        </mxCell>
        <mxCell id="WvfnBEPjAD18mNaexyHV-165" style="edgeStyle=orthogonalEdgeStyle;rounded=0;orthogonalLoop=1;jettySize=auto;html=1;entryX=0;entryY=0.5;entryDx=0;entryDy=0;strokeWidth=3;sketch=1;curveFitting=1;jiggle=2;startArrow=oval;startFill=0;" parent="1" edge="1">
          <mxGeometry relative="1" as="geometry">
            <mxPoint x="62" y="89.75" as="sourcePoint" />
            <Array as="points">
              <mxPoint x="62" y="89.75" />
            </Array>
            <mxPoint x="212" y="89.75" as="targetPoint" />
          </mxGeometry>
        </mxCell>
        <mxCell id="WvfnBEPjAD18mNaexyHV-166" value="GETALL" style="edgeLabel;html=1;align=center;verticalAlign=middle;resizable=0;points=[];fontSize=24;labelBackgroundColor=default;" parent="WvfnBEPjAD18mNaexyHV-165" vertex="1" connectable="0">
          <mxGeometry x="0.4667" relative="1" as="geometry">
            <mxPoint x="-40" as="offset" />
          </mxGeometry>
        </mxCell>
      </root>
    </mxGraphModel>
  </diagram>
</mxfile>
